<mxfile host="app.diagrams.net" modified="2023-09-08T08:02:44.683Z" agent="Mozilla/5.0 (Windows NT 10.0; Win64; x64) AppleWebKit/537.36 (KHTML, like Gecko) Chrome/116.0.0.0 Safari/537.36" etag="YyClTbIBc8cA4HUm_Zks" version="21.7.1" type="github">
  <diagram name="Page-1" id="gcCiePXWZy9IUxu148gf">
    <mxGraphModel dx="1434" dy="798" grid="1" gridSize="10" guides="1" tooltips="1" connect="1" arrows="1" fold="1" page="1" pageScale="1" pageWidth="827" pageHeight="1169" math="0" shadow="0">
      <root>
        <mxCell id="0" />
        <mxCell id="1" parent="0" />
        <mxCell id="iDUbeCmobsgotno77nHX-7" value="" style="rounded=0;whiteSpace=wrap;html=1;movable=0;resizable=0;rotatable=0;deletable=0;editable=0;locked=1;connectable=0;" vertex="1" parent="1">
          <mxGeometry x="180" y="40" width="570" height="450" as="geometry" />
        </mxCell>
        <mxCell id="iDUbeCmobsgotno77nHX-8" style="edgeStyle=orthogonalEdgeStyle;rounded=0;orthogonalLoop=1;jettySize=auto;html=1;exitX=1;exitY=0.5;exitDx=0;exitDy=0;strokeWidth=2;dashed=1;endArrow=open;endFill=0;" edge="1" parent="1" source="iDUbeCmobsgotno77nHX-1">
          <mxGeometry relative="1" as="geometry">
            <mxPoint x="640" y="270" as="targetPoint" />
          </mxGeometry>
        </mxCell>
        <mxCell id="iDUbeCmobsgotno77nHX-16" value="&lt;font style=&quot;font-size: 15px;&quot;&gt;&amp;lt;&amp;lt;includes&amp;gt;&amp;gt;&lt;/font&gt;" style="edgeLabel;html=1;align=center;verticalAlign=middle;resizable=0;points=[];" vertex="1" connectable="0" parent="iDUbeCmobsgotno77nHX-8">
          <mxGeometry x="-0.4253" y="1" relative="1" as="geometry">
            <mxPoint x="35" y="-14" as="offset" />
          </mxGeometry>
        </mxCell>
        <mxCell id="iDUbeCmobsgotno77nHX-17" value="&lt;font style=&quot;font-size: 15px;&quot;&gt;&amp;lt;&amp;lt;includes&amp;gt;&amp;gt;&lt;/font&gt;" style="edgeLabel;html=1;align=center;verticalAlign=middle;resizable=0;points=[];" vertex="1" connectable="0" parent="iDUbeCmobsgotno77nHX-8">
          <mxGeometry x="-0.4253" y="1" relative="1" as="geometry">
            <mxPoint x="-15" y="146" as="offset" />
          </mxGeometry>
        </mxCell>
        <mxCell id="iDUbeCmobsgotno77nHX-18" value="&lt;font style=&quot;font-size: 15px;&quot;&gt;&amp;lt;&amp;lt;includes&amp;gt;&amp;gt;&lt;/font&gt;" style="edgeLabel;html=1;align=center;verticalAlign=middle;resizable=0;points=[];" vertex="1" connectable="0" parent="iDUbeCmobsgotno77nHX-8">
          <mxGeometry x="-0.4253" y="1" relative="1" as="geometry">
            <mxPoint x="75" y="276" as="offset" />
          </mxGeometry>
        </mxCell>
        <mxCell id="iDUbeCmobsgotno77nHX-19" value="&lt;font style=&quot;font-size: 15px;&quot;&gt;&amp;lt;&amp;lt;extend&amp;gt;&amp;gt;&lt;/font&gt;" style="edgeLabel;html=1;align=center;verticalAlign=middle;resizable=0;points=[];" vertex="1" connectable="0" parent="iDUbeCmobsgotno77nHX-8">
          <mxGeometry x="-0.4253" y="1" relative="1" as="geometry">
            <mxPoint x="-125" y="86" as="offset" />
          </mxGeometry>
        </mxCell>
        <mxCell id="iDUbeCmobsgotno77nHX-11" style="edgeStyle=orthogonalEdgeStyle;rounded=0;orthogonalLoop=1;jettySize=auto;html=1;exitX=0.5;exitY=1;exitDx=0;exitDy=0;strokeWidth=2;dashed=1;endArrow=open;endFill=0;" edge="1" parent="1" source="iDUbeCmobsgotno77nHX-1">
          <mxGeometry relative="1" as="geometry">
            <mxPoint x="344" y="270" as="targetPoint" />
          </mxGeometry>
        </mxCell>
        <mxCell id="iDUbeCmobsgotno77nHX-1" value="&lt;font style=&quot;font-size: 20px;&quot;&gt;cas_1&lt;/font&gt;" style="ellipse;whiteSpace=wrap;html=1;strokeWidth=2;" vertex="1" parent="1">
          <mxGeometry x="274" y="110" width="140" height="70" as="geometry" />
        </mxCell>
        <mxCell id="iDUbeCmobsgotno77nHX-2" value="&lt;font style=&quot;font-size: 20px;&quot;&gt;cas_4&lt;/font&gt;" style="ellipse;whiteSpace=wrap;html=1;strokeWidth=2;" vertex="1" parent="1">
          <mxGeometry x="570" y="270" width="140" height="70" as="geometry" />
        </mxCell>
        <mxCell id="iDUbeCmobsgotno77nHX-9" style="edgeStyle=orthogonalEdgeStyle;rounded=0;orthogonalLoop=1;jettySize=auto;html=1;exitX=1;exitY=0.5;exitDx=0;exitDy=0;entryX=0;entryY=0.5;entryDx=0;entryDy=0;strokeWidth=2;dashed=1;endArrow=open;endFill=0;" edge="1" parent="1" source="iDUbeCmobsgotno77nHX-3" target="iDUbeCmobsgotno77nHX-2">
          <mxGeometry relative="1" as="geometry" />
        </mxCell>
        <mxCell id="iDUbeCmobsgotno77nHX-3" value="&lt;font style=&quot;font-size: 20px;&quot;&gt;cas_2&lt;/font&gt;" style="ellipse;whiteSpace=wrap;html=1;strokeWidth=2;" vertex="1" parent="1">
          <mxGeometry x="274" y="270" width="140" height="70" as="geometry" />
        </mxCell>
        <mxCell id="iDUbeCmobsgotno77nHX-10" style="edgeStyle=orthogonalEdgeStyle;rounded=0;orthogonalLoop=1;jettySize=auto;html=1;exitX=1;exitY=0.5;exitDx=0;exitDy=0;strokeWidth=2;dashed=1;endArrow=open;endFill=0;" edge="1" parent="1" source="iDUbeCmobsgotno77nHX-4">
          <mxGeometry relative="1" as="geometry">
            <mxPoint x="640" y="340" as="targetPoint" />
          </mxGeometry>
        </mxCell>
        <mxCell id="iDUbeCmobsgotno77nHX-4" value="&lt;font style=&quot;font-size: 20px;&quot;&gt;cas_3&lt;/font&gt;" style="ellipse;whiteSpace=wrap;html=1;strokeWidth=2;" vertex="1" parent="1">
          <mxGeometry x="274" y="400" width="140" height="70" as="geometry" />
        </mxCell>
        <mxCell id="iDUbeCmobsgotno77nHX-12" style="edgeStyle=orthogonalEdgeStyle;rounded=0;orthogonalLoop=1;jettySize=auto;html=1;exitX=0.5;exitY=0.5;exitDx=0;exitDy=0;exitPerimeter=0;entryX=0;entryY=0.5;entryDx=0;entryDy=0;strokeWidth=2;" edge="1" parent="1" source="iDUbeCmobsgotno77nHX-5" target="iDUbeCmobsgotno77nHX-1">
          <mxGeometry relative="1" as="geometry" />
        </mxCell>
        <mxCell id="iDUbeCmobsgotno77nHX-13" style="edgeStyle=orthogonalEdgeStyle;rounded=0;orthogonalLoop=1;jettySize=auto;html=1;exitX=0.5;exitY=0.5;exitDx=0;exitDy=0;exitPerimeter=0;entryX=0;entryY=0.5;entryDx=0;entryDy=0;strokeWidth=2;" edge="1" parent="1" source="iDUbeCmobsgotno77nHX-5" target="iDUbeCmobsgotno77nHX-3">
          <mxGeometry relative="1" as="geometry">
            <Array as="points">
              <mxPoint x="150" y="145" />
              <mxPoint x="150" y="305" />
            </Array>
          </mxGeometry>
        </mxCell>
        <mxCell id="iDUbeCmobsgotno77nHX-5" value="&lt;font style=&quot;font-size: 17px;&quot;&gt;Acteur&lt;/font&gt;" style="shape=umlActor;verticalLabelPosition=bottom;verticalAlign=top;html=1;strokeWidth=2;" vertex="1" parent="1">
          <mxGeometry x="50" y="90" width="60" height="110" as="geometry" />
        </mxCell>
        <mxCell id="iDUbeCmobsgotno77nHX-14" style="edgeStyle=orthogonalEdgeStyle;rounded=0;orthogonalLoop=1;jettySize=auto;html=1;exitX=0.5;exitY=0.5;exitDx=0;exitDy=0;exitPerimeter=0;entryX=0;entryY=0.5;entryDx=0;entryDy=0;strokeWidth=2;" edge="1" parent="1" source="iDUbeCmobsgotno77nHX-6" target="iDUbeCmobsgotno77nHX-4">
          <mxGeometry relative="1" as="geometry" />
        </mxCell>
        <mxCell id="iDUbeCmobsgotno77nHX-15" style="edgeStyle=orthogonalEdgeStyle;rounded=0;orthogonalLoop=1;jettySize=auto;html=1;exitX=0.5;exitY=0;exitDx=0;exitDy=0;exitPerimeter=0;strokeWidth=2;endArrow=block;endFill=0;jumpSize=4;endSize=16;" edge="1" parent="1" source="iDUbeCmobsgotno77nHX-6">
          <mxGeometry relative="1" as="geometry">
            <mxPoint x="80" y="230" as="targetPoint" />
          </mxGeometry>
        </mxCell>
        <mxCell id="iDUbeCmobsgotno77nHX-6" value="&lt;font style=&quot;font-size: 17px;&quot;&gt;Acteur_2&lt;/font&gt;" style="shape=umlActor;verticalLabelPosition=bottom;verticalAlign=top;html=1;strokeWidth=2;" vertex="1" parent="1">
          <mxGeometry x="50" y="380" width="60" height="110" as="geometry" />
        </mxCell>
      </root>
    </mxGraphModel>
  </diagram>
</mxfile>
